<svg width="20" height="20" viewBox="0 0 20 20" fill="none" xmlns="http://www.w3.org/2000/svg">
<path d="M9.1123 19.0498C8.77246 19.0498 8.47949 18.9531 8.2334 18.7598C7.99316 18.5723 7.83496 18.3145 7.75879 17.9863L7.37207 16.3428L7.09082 16.2461L5.66699 17.125C5.37988 17.3066 5.08105 17.377 4.77051 17.3359C4.45996 17.2949 4.18457 17.1543 3.94434 16.9141L2.72266 15.6924C2.47656 15.4521 2.33301 15.1768 2.29199 14.8662C2.25684 14.5557 2.33008 14.2598 2.51172 13.9785L3.39941 12.5547L3.30273 12.291L1.65918 11.9043C1.33691 11.8281 1.0791 11.667 0.885742 11.4209C0.692383 11.1748 0.595703 10.8848 0.595703 10.5508V8.81055C0.595703 8.47656 0.689453 8.18652 0.876953 7.94043C1.07031 7.69434 1.33105 7.5332 1.65918 7.45703L3.28516 7.06152L3.39062 6.78027L2.50293 5.35645C2.32129 5.0752 2.24805 4.78223 2.2832 4.47754C2.32422 4.16699 2.46777 3.88867 2.71387 3.64258L3.93555 2.41211C4.17578 2.17773 4.44824 2.04004 4.75293 1.99902C5.06348 1.95801 5.3623 2.02539 5.64941 2.20117L7.07324 3.08008L7.37207 2.96582L7.75879 1.32227C7.83496 1 7.99316 0.742188 8.2334 0.548828C8.47949 0.355469 8.77246 0.258789 9.1123 0.258789H10.8877C11.2275 0.258789 11.5176 0.355469 11.7578 0.548828C12.0039 0.742188 12.165 1 12.2412 1.32227L12.6191 2.96582L12.918 3.08008L14.3506 2.20117C14.6318 2.02539 14.9277 1.95801 15.2383 1.99902C15.5488 2.04004 15.8213 2.17773 16.0557 2.41211L17.2861 3.64258C17.5264 3.88867 17.667 4.16699 17.708 4.47754C17.749 4.78223 17.6787 5.0752 17.4971 5.35645L16.6006 6.78027L16.7148 7.06152L18.3408 7.45703C18.6631 7.5332 18.9209 7.69434 19.1143 7.94043C19.3076 8.18652 19.4043 8.47656 19.4043 8.81055V10.5508C19.4043 10.8848 19.3076 11.1748 19.1143 11.4209C18.9209 11.667 18.6631 11.8281 18.3408 11.9043L16.6973 12.291L16.5918 12.5547L17.4883 13.9785C17.6699 14.2598 17.7402 14.5557 17.6992 14.8662C17.6582 15.1768 17.5176 15.4521 17.2773 15.6924L16.0469 16.9141C15.8066 17.1543 15.5312 17.2949 15.2207 17.3359C14.9102 17.377 14.6143 17.3066 14.333 17.125L12.9004 16.2461L12.6191 16.3428L12.2412 17.9863C12.165 18.3145 12.0039 18.5723 11.7578 18.7598C11.5176 18.9531 11.2275 19.0498 10.8877 19.0498H9.1123ZM9.25293 17.6787H10.7471C10.8936 17.6787 10.9756 17.6113 10.9932 17.4766L11.5293 15.2969C11.7988 15.2324 12.0537 15.1504 12.2939 15.0508C12.5342 14.9453 12.748 14.834 12.9355 14.7168L14.8516 15.8945C14.9629 15.9707 15.0742 15.9561 15.1855 15.8506L16.2139 14.8135C16.3135 14.7256 16.3252 14.6172 16.249 14.4883L15.0713 12.5898C15.1768 12.4023 15.2793 12.1885 15.3789 11.9482C15.4844 11.708 15.5723 11.4531 15.6426 11.1836L17.8311 10.665C17.9658 10.6416 18.0332 10.5566 18.0332 10.4102V8.94238C18.0332 8.80176 17.9658 8.7168 17.8311 8.6875L15.6514 8.16016C15.5811 7.87305 15.4902 7.60645 15.3789 7.36035C15.2676 7.11426 15.1709 6.90918 15.0889 6.74512L16.2578 4.84668C16.3398 4.71777 16.3311 4.60352 16.2314 4.50391L15.1943 3.48438C15.0889 3.39062 14.9746 3.37598 14.8516 3.44043L12.9443 4.60059C12.751 4.49512 12.5342 4.39258 12.2939 4.29297C12.0596 4.1875 11.8047 4.09961 11.5293 4.0293L10.9932 1.83203C10.9756 1.69727 10.8936 1.62988 10.7471 1.62988H9.25293C9.10645 1.62988 9.02148 1.69727 8.99805 1.83203L8.47949 4.01172C8.21582 4.08203 7.95508 4.16992 7.69727 4.27539C7.44531 4.38086 7.22559 4.48633 7.03809 4.5918L5.13965 3.44043C5.02246 3.37598 4.91113 3.39062 4.80566 3.48438L3.75977 4.50391C3.66602 4.60352 3.65723 4.71777 3.7334 4.84668L4.90234 6.74512C4.82617 6.90918 4.72949 7.11426 4.6123 7.36035C4.50098 7.60645 4.41016 7.87305 4.33984 8.16016L2.16895 8.6875C2.03418 8.7168 1.9668 8.80176 1.9668 8.94238V10.4102C1.9668 10.5566 2.03418 10.6416 2.16895 10.665L4.34863 11.1836C4.41895 11.4531 4.50684 11.708 4.6123 11.9482C4.71777 12.1885 4.82031 12.4023 4.91992 12.5898L3.74219 14.4883C3.67188 14.6172 3.68359 14.7256 3.77734 14.8135L4.81445 15.8506C4.92578 15.9561 5.03418 15.9707 5.13965 15.8945L7.05566 14.7168C7.24316 14.834 7.45703 14.9453 7.69727 15.0508C7.94336 15.1504 8.20117 15.2324 8.4707 15.2969L8.99805 17.4766C9.02148 17.6113 9.10645 17.6787 9.25293 17.6787ZM10 13.0117C9.38477 13.0117 8.82227 12.8594 8.3125 12.5547C7.80859 12.25 7.4043 11.8457 7.09961 11.3418C6.79492 10.832 6.64258 10.2695 6.64258 9.6543C6.64258 9.04492 6.79492 8.48828 7.09961 7.98438C7.4043 7.47461 7.80859 7.07031 8.3125 6.77148C8.82227 6.4668 9.38477 6.31445 10 6.31445C10.6152 6.31445 11.1748 6.4668 11.6787 6.77148C12.1885 7.07031 12.5928 7.47461 12.8916 7.98438C13.1963 8.48828 13.3486 9.04492 13.3486 9.6543C13.3486 10.2695 13.1963 10.832 12.8916 11.3418C12.5928 11.8516 12.1885 12.2588 11.6787 12.5635C11.1748 12.8623 10.6152 13.0117 10 13.0117ZM10 11.6494C10.3574 11.6494 10.6855 11.5586 10.9844 11.377C11.2832 11.1953 11.5205 10.9551 11.6963 10.6562C11.8779 10.3516 11.9688 10.0176 11.9688 9.6543C11.9688 9.29102 11.8779 8.95996 11.6963 8.66113C11.5205 8.3623 11.2832 8.125 10.9844 7.94922C10.6855 7.76758 10.3574 7.67676 10 7.67676C9.63672 7.67676 9.30273 7.76758 8.99805 7.94922C8.69922 8.125 8.45898 8.3623 8.27734 8.66113C8.10156 8.95996 8.01367 9.29102 8.01367 9.6543C8.01367 10.0234 8.10156 10.3604 8.27734 10.665C8.45898 10.9639 8.69922 11.2041 8.99805 11.3857C9.30273 11.5615 9.63672 11.6494 10 11.6494Z" fill="#5786FF"/>
</svg>
