<svg width="19" height="19" viewBox="0 0 19 19" fill="none" xmlns="http://www.w3.org/2000/svg">
<path d="M4.90332 10.6035C4.72754 10.6035 4.58105 10.5449 4.46387 10.4277C4.34668 10.3105 4.28809 10.1641 4.28809 9.98828C4.28809 9.81836 4.34668 9.6748 4.46387 9.55762C4.58105 9.44043 4.72754 9.38184 4.90332 9.38184H8.88477V4.06445C8.88477 3.89453 8.94336 3.75098 9.06055 3.63379C9.17773 3.5166 9.32129 3.45801 9.49121 3.45801C9.66699 3.45801 9.81348 3.5166 9.93066 3.63379C10.0479 3.75098 10.1064 3.89453 10.1064 4.06445V9.98828C10.1064 10.1641 10.0479 10.3105 9.93066 10.4277C9.81348 10.5449 9.66699 10.6035 9.49121 10.6035H4.90332ZM9.5 18.6191C8.27539 18.6191 7.12109 18.3848 6.03711 17.916C4.95898 17.4473 4.00684 16.7998 3.18066 15.9736C2.35449 15.1475 1.70703 14.1953 1.23828 13.1172C0.769531 12.0332 0.535156 10.8789 0.535156 9.6543C0.535156 8.42969 0.769531 7.27832 1.23828 6.2002C1.70703 5.11621 2.35156 4.16113 3.17188 3.33496C3.99805 2.50879 4.9502 1.86133 6.02832 1.39258C7.1123 0.923828 8.2666 0.689453 9.49121 0.689453C10.7158 0.689453 11.8701 0.923828 12.9541 1.39258C14.0381 1.86133 14.9932 2.50879 15.8193 3.33496C16.6455 4.16113 17.293 5.11621 17.7617 6.2002C18.2305 7.27832 18.4648 8.42969 18.4648 9.6543C18.4648 10.8789 18.2305 12.0332 17.7617 13.1172C17.293 14.1953 16.6455 15.1475 15.8193 15.9736C14.9932 16.7998 14.0381 17.4473 12.9541 17.916C11.876 18.3848 10.7246 18.6191 9.5 18.6191ZM9.5 17.125C10.5371 17.125 11.5068 16.9316 12.4092 16.5449C13.3115 16.1582 14.1055 15.625 14.791 14.9453C15.4766 14.2598 16.0098 13.4658 16.3906 12.5635C16.7773 11.6611 16.9707 10.6914 16.9707 9.6543C16.9707 8.61719 16.7773 7.64746 16.3906 6.74512C16.0039 5.84277 15.4678 5.04883 14.7822 4.36328C14.1025 3.67773 13.3086 3.14453 12.4004 2.76367C11.498 2.37695 10.5283 2.18359 9.49121 2.18359C8.4541 2.18359 7.48438 2.37695 6.58203 2.76367C5.67969 3.14453 4.88867 3.67773 4.20898 4.36328C3.5293 5.04883 2.99609 5.84277 2.60938 6.74512C2.22852 7.64746 2.03809 8.61719 2.03809 9.6543C2.03809 10.6914 2.22852 11.6611 2.60938 12.5635C2.99609 13.4658 3.5293 14.2598 4.20898 14.9453C4.89453 15.625 5.68848 16.1582 6.59082 16.5449C7.49316 16.9316 8.46289 17.125 9.5 17.125Z" fill="#5786FF"/>
</svg>
