<svg width="18" height="19" viewBox="0 0 18 19" fill="none" xmlns="http://www.w3.org/2000/svg">
<path d="M9 6.12988L12.4277 8.7666L11.0566 12.9854H6.94336L5.57227 8.7666L9 6.12988ZM12.085 2.0957L8.99121 4.5918L5.88867 2.0957L8.99121 1.08496L12.085 2.0957ZM8.5166 1.38379H9.49219V7.20215H8.5166V1.38379ZM15.1348 4.31055L16.8135 6.41113L17.4463 10.0586L13.9834 8.11621L15.1348 4.31055ZM17.1387 7.36035L11.7422 9.54883L11.373 8.64355L16.7695 6.46387L17.1387 7.36035ZM11.0215 17.6787L11.918 13.8027L15.9609 13.8643L13.957 16.4043L11.0215 17.6787ZM14.2734 16.0439L13.5 16.6328L9.91406 12.0449L10.6963 11.4473L14.2734 16.0439ZM6.96973 17.6436L4.03418 16.3691L2.03027 13.8291L6.07324 13.7676L6.96973 17.6436ZM3.71777 16.0088L7.29492 11.4121L8.07715 12.0098L4.49121 16.5977L3.71777 16.0088ZM2.86523 4.31055L4.0166 8.11621L0.553711 10.0586L1.18652 6.41113L2.86523 4.31055ZM0.861328 7.36035L1.23047 6.46387L6.62695 8.64355L6.25781 9.54883L0.861328 7.36035ZM9 18.6191C7.77539 18.6191 6.62109 18.3848 5.53711 17.916C4.45898 17.4473 3.50684 16.7998 2.68066 15.9736C1.85449 15.1475 1.20703 14.1953 0.738281 13.1172C0.269531 12.0332 0.0351562 10.8789 0.0351562 9.6543C0.0351562 8.42969 0.269531 7.27832 0.738281 6.2002C1.20703 5.11621 1.85156 4.16113 2.67188 3.33496C3.49805 2.50879 4.4502 1.86133 5.52832 1.39258C6.6123 0.923828 7.7666 0.689453 8.99121 0.689453C10.2158 0.689453 11.3701 0.923828 12.4541 1.39258C13.5381 1.86133 14.4932 2.50879 15.3193 3.33496C16.1455 4.16113 16.793 5.11621 17.2617 6.2002C17.7305 7.27832 17.9648 8.42969 17.9648 9.6543C17.9648 10.8789 17.7305 12.0332 17.2617 13.1172C16.793 14.1953 16.1455 15.1475 15.3193 15.9736C14.4932 16.7998 13.5381 17.4473 12.4541 17.916C11.376 18.3848 10.2246 18.6191 9 18.6191ZM9 17.4238C10.0605 17.4238 11.0596 17.2188 11.9971 16.8086C12.9346 16.4043 13.7607 15.8447 14.4756 15.1299C15.1904 14.415 15.75 13.5889 16.1543 12.6514C16.5645 11.7139 16.7695 10.7148 16.7695 9.6543C16.7695 8.59375 16.5645 7.59473 16.1543 6.65723C15.75 5.71973 15.1875 4.89355 14.4668 4.17871C13.752 3.46387 12.9258 2.9043 11.9883 2.5C11.0508 2.08984 10.0518 1.88477 8.99121 1.88477C7.93066 1.88477 6.93164 2.08984 5.99414 2.5C5.05664 2.9043 4.23047 3.46387 3.51562 4.17871C2.80664 4.89355 2.24707 5.71973 1.83691 6.65723C1.43262 7.59473 1.23047 8.59375 1.23047 9.6543C1.23047 10.7148 1.43262 11.7139 1.83691 12.6514C2.24707 13.5889 2.80957 14.415 3.52441 15.1299C4.23926 15.8447 5.06543 16.4043 6.00293 16.8086C6.94043 17.2188 7.93945 17.4238 9 17.4238Z" fill="#5786FF"/>
</svg>
